<?xml version="1.0" encoding="utf-8"?>
<!-- Generator: Adobe Illustrator 16.0.0, SVG Export Plug-In . SVG Version: 6.00 Build 0)  -->
<!DOCTYPE svg PUBLIC "-//W3C//DTD SVG 1.1//EN" "http://www.w3.org/Graphics/SVG/1.1/DTD/svg11.dtd">
<svg version="1.1" id="Capa_1" xmlns="http://www.w3.org/2000/svg" xmlns:xlink="http://www.w3.org/1999/xlink" x="0px" y="0px"
	 width="1000px" height="1000px" viewBox="0 0 1000 1000" enable-background="new 0 0 1000 1000" xml:space="preserve">
<g>
	<g>
		<path fill="#FFFFFF" d="M213.663,463.687l26.823-19.418c0,0,12.012-165.077,81.052-265.138
			c-13.703-12.246-24.257-27.698-30.205-45.074C244.042,190.618,208.123,290.096,213.663,463.687z"/>
		<path fill="#FFFFFF" d="M446.555,191.143l-7.056,58.602h303.566c0,0,3.673-84.259-5.831-139.712h14.811
			c11.721,0,21.225-7.988,21.225-17.901V73.938c0-9.855-9.504-17.902-21.225-17.902H504.808C488.13,22.975,452.503,0,411.394,0
			c-57.261,0-103.793,44.2-103.793,98.487c0,54.346,46.532,98.545,103.793,98.545C423.697,197.09,435.534,194.874,446.555,191.143z
			 M325.678,101.461c0-0.991-0.117-1.924-0.117-2.916c0-44.433,38.543-80.585,85.892-80.585c30.671,0,57.668,15.335,72.83,38.135
			h-25.773h-8.863c-6.355,0-11.954,2.392-15.86,6.123C403.638,63.967,363.462,72.947,325.678,101.461z M434.835,105.018
			c3.848,3.091,9.038,5.015,14.753,5.015h6.646l-5.131,42.742l-2.157,18.134c-11.371,5.248-24.083,8.28-37.552,8.28
			c-26.59,0-50.322-11.37-66.066-29.155C369.411,125.193,398.857,108.167,434.835,105.018z"/>
		<path fill="#FFFFFF" d="M730.12,280.824H445.389c-31.371,0-56.737,25.481-56.737,56.736v605.703
			c0,31.312,25.366,56.736,56.737,56.736H730.12c31.195,0,56.736-25.424,56.736-56.736V337.561
			C786.856,306.248,761.315,280.824,730.12,280.824z"/>
	</g>
</g>
</svg>
