<?xml version="1.0" encoding="iso-8859-1"?>
<!-- Generator: Adobe Illustrator 18.1.1, SVG Export Plug-In . SVG Version: 6.00 Build 0)  -->
<svg version="1.1" id="Capa_1" xmlns="http://www.w3.org/2000/svg" xmlns:xlink="http://www.w3.org/1999/xlink" x="0px" y="0px"
	 viewBox="0 0 14.869 14.869" style="enable-background:new 0 0 14.869 14.869;" xml:space="preserve">
<g>
	<g>
		<path style="fill:#030104;" d="M2.524,7.952l0.46-0.333c0,0,0.206-2.831,1.39-4.547c-0.235-0.21-0.416-0.475-0.518-0.773
			C3.045,3.269,2.429,4.975,2.524,7.952z"/>
		<path style="fill:#030104;" d="M6.518,3.278L6.397,4.283h5.206c0,0,0.063-1.445-0.1-2.396h0.254c0.201,0,0.364-0.137,0.364-0.307
			V1.268c0-0.169-0.163-0.307-0.364-0.307h-4.24C7.231,0.394,6.62,0,5.915,0c-0.982,0-1.78,0.758-1.78,1.689
			c0,0.932,0.798,1.69,1.78,1.69C6.126,3.38,6.329,3.342,6.518,3.278z M4.445,1.74c0-0.017-0.002-0.033-0.002-0.05
			c0-0.762,0.661-1.382,1.473-1.382c0.526,0,0.989,0.263,1.249,0.654H6.723H6.571c-0.109,0-0.205,0.041-0.272,0.105
			C5.782,1.097,5.093,1.251,4.445,1.74z M6.317,1.801C6.383,1.854,6.472,1.887,6.57,1.887h0.114L6.596,2.62L6.559,2.931
			c-0.195,0.09-0.413,0.142-0.644,0.142c-0.456,0-0.863-0.195-1.133-0.5C5.195,2.147,5.7,1.855,6.317,1.801z"/>
		<path style="fill:#030104;" d="M11.381,4.816H6.498c-0.538,0-0.973,0.437-0.973,0.973v8.107c0,0.537,0.435,0.973,0.973,0.973
			h4.883c0.535,0,0.973-0.436,0.973-0.973V5.789C12.354,5.252,11.916,4.816,11.381,4.816z M11.578,13.321H6.302v-2.419h5.276V13.321
			z"/>
	</g>
</g>
<g>
</g>
<g>
</g>
<g>
</g>
<g>
</g>
<g>
</g>
<g>
</g>
<g>
</g>
<g>
</g>
<g>
</g>
<g>
</g>
<g>
</g>
<g>
</g>
<g>
</g>
<g>
</g>
<g>
</g>
</svg>
